# xmcd
#
# Track frame offsets: 
#        182
#        20857
#        41445
#        60470
#        79295
#        96295
#        111107
#        134220
#        154607
#        171995
#        184132
#        193532
#        207970
#        223857
#
# Disc length: 3194 seconds
#
# Revision: 2
# Processed by: cddbd v1.5.2PL0 Copyright (c) Steve Scherf et al.
# Submitted via: ExactAudioCopy v0.95b4
#
DISCID=d00c780e
DTITLE=Candye Kane - Diva La Grande
DYEAR=1997
DGENRE=Blues
TTITLE0=You Need a Great Big Woman
TTITLE1=Love 'Em and Forgive 'Em
TTITLE2=Freak Lover
TTITLE3=I Got a Feelin'
TTITLE4=I Left My Heart in Texas
TTITLE5=The Lord Was a Woman
TTITLE6=It Should Be Rainin'
TTITLE7=These Boots Are Made for Walkin
TTITLE8=Gifted in the Ways of Love
TTITLE9=I'm in Love With a Girl
TTITLE10=Homewrecker
TTITLE11=Beehive (Instrumental)
TTITLE12=All You Can Eat (and You Can Eat It All Night Long)
TTITLE13=That Ain't It
EXTD=
EXTT0=
EXTT1=
EXTT2=
EXTT3=
EXTT4=
EXTT5=
EXTT6=
EXTT7=
EXTT8=
EXTT9=
EXTT10=
EXTT11=
EXTT12=
EXTT13=
PLAYORDER=
